<?xml version="1.0" encoding="UTF-8" standalone="no"?>
<!-- Created with Inkscape (http://www.inkscape.org/) -->

<svg
   xmlns:osb="http://www.openswatchbook.org/uri/2009/osb"
   xmlns:dc="http://purl.org/dc/elements/1.1/"
   xmlns:cc="http://creativecommons.org/ns#"
   xmlns:rdf="http://www.w3.org/1999/02/22-rdf-syntax-ns#"
   xmlns:svg="http://www.w3.org/2000/svg"
   xmlns="http://www.w3.org/2000/svg"
   xmlns:sodipodi="http://sodipodi.sourceforge.net/DTD/sodipodi-0.dtd"
   xmlns:inkscape="http://www.inkscape.org/namespaces/inkscape"
   width="1024"
   height="1024"
   viewBox="0 0 270.93333 270.93334"
   version="1.1"
   id="svg16"
   inkscape:export-filename="/home/jordan/jtsdk/src/wsjtx/artwork/js8call_icon.png"
   inkscape:export-xdpi="96"
   inkscape:export-ydpi="96"
   inkscape:version="0.92.3 (2405546, 2018-03-11)"
   sodipodi:docname="icon_1024.svg">
  <defs
     id="defs10">
    <linearGradient
       id="linearGradient6001"
       osb:paint="solid">
      <stop
         style="stop-color:#000000;stop-opacity:1;"
         offset="0"
         id="stop5999" />
    </linearGradient>
  </defs>
  <sodipodi:namedview
     id="base"
     pagecolor="#ffffff"
     bordercolor="#666666"
     borderopacity="1.0"
     inkscape:pageopacity="0.0"
     inkscape:pageshadow="2"
     inkscape:zoom="0.82"
     inkscape:cx="619.41789"
     inkscape:cy="491.10861"
     inkscape:document-units="mm"
     inkscape:current-layer="g5633"
     showgrid="false"
     inkscape:window-width="1920"
     inkscape:window-height="1053"
     inkscape:window-x="0"
     inkscape:window-y="27"
     inkscape:window-maximized="1"
     units="px"
     inkscape:pagecheckerboard="true"
     showguides="false" />
  <metadata
     id="metadata13">
    <rdf:RDF>
      <cc:Work
         rdf:about="">
        <dc:format>image/svg+xml</dc:format>
        <dc:type
           rdf:resource="http://purl.org/dc/dcmitype/StillImage" />
        <dc:title></dc:title>
      </cc:Work>
    </rdf:RDF>
  </metadata>
  <g
     inkscape:label="Layer 1"
     inkscape:groupmode="layer"
     id="layer1"
     transform="translate(0,-26.06665)">
    <g
       id="g6030"
       transform="matrix(1.5635065,0,0,1.5635065,-28.822499,6.8392367)">
      <g
         id="g4254">
        <g
           id="g5633">
          <circle
             inkscape:export-ydpi="300.06662"
             inkscape:export-xdpi="300.06662"
             style="fill:#ffffff;fill-opacity:1;stroke:#000000;stroke-width:10;stroke-miterlimit:4;stroke-dasharray:none;stroke-opacity:1"
             r="81.642853"
             cy="98.940475"
             cx="105.07738"
             id="path18" />
          <g
             aria-label="J"
             style="font-style:normal;font-weight:normal;font-size:6.76897335px;line-height:1.25;font-family:sans-serif;letter-spacing:0px;word-spacing:0px;fill:#000000;fill-opacity:1;stroke:#000000;stroke-width:1.49728441;stroke-miterlimit:4;stroke-dasharray:none;stroke-opacity:1"
             id="text5787"
             transform="matrix(1.1302083,0,0,1.1302083,-44.033339,14.076171)">
            <path
               d="m 129.49154,20.211895 v 83.918925 c 0,4.1513 0.10921,9.06732 -2.40339,12.78165 -1.85716,2.73112 -5.39174,5.2316 -8.81448,5.26817 -3.95778,0.0423 -7.64506,-2.87946 -10.32017,-5.87252 -3.94648,-0.11707 -3.15405,2.04693 -4.89921,4.20943 4.04204,4.80676 9.83203,6.34006 15.8405,6.34006 6.44543,0 12.34465,-1.97028 15.51276,-7.86948 2.62187,-4.91602 2.62187,-10.05053 2.62187,-14.96655 V 20.211895 Z"
               style="font-style:normal;font-variant:normal;font-weight:500;font-stretch:normal;font-size:67.68972778px;font-family:Inconsolata;-inkscape-font-specification:'Inconsolata Medium';fill:#000000;stroke:#000000;stroke-width:2.4164753;stroke-miterlimit:4;stroke-dasharray:none;stroke-opacity:1"
               id="path5791"
               inkscape:connector-curvature="0"
               sodipodi:nodetypes="cscaccscscc" />
          </g>
          <g
             id="g5677"
             transform="matrix(0.79962948,0,0,0.79962948,21.054409,19.824756)">
            <g
               aria-label="8"
               style="font-style:normal;font-weight:normal;font-size:7.09937859px;line-height:1.25;font-family:sans-serif;letter-spacing:0px;word-spacing:0px;fill:#000000;fill-opacity:1;stroke:none;stroke-width:0.17748445"
               id="text4763"
               transform="translate(-162.89081,-6.63358)">
              <path
                 d="m 243.16443,104.08489 c -16.24554,7.31049 -27.34665,23.82678 -27.34665,40.88459 0,20.30692 16.78705,46.57053 52.25647,46.57053 35.46941,0 52.25647,-26.26361 52.25647,-46.57053 0,-13.53794 -7.85201,-32.22031 -27.34665,-40.88459 16.78705,-9.205807 24.3683,-25.7221 24.3683,-40.072323 0,-24.368302 -21.38996,-44.404461 -49.27812,-44.404461 -27.88817,0 -49.27813,20.036159 -49.27813,44.404461 0,23.014508 17.05782,36.281693 24.36831,40.072323 z m 24.90982,-71.751115 c 16.51629,0 34.65714,10.559597 34.65714,31.949551 0,20.577677 -17.05781,33.574105 -34.65714,33.574105 -21.1192,0 -34.65714,-17.057811 -34.65714,-33.574105 0,-12.996428 9.47656,-31.949551 34.65714,-31.949551 z m 0,78.249325 c 24.63906,0 37.63548,18.14085 37.63548,34.38638 0,18.14085 -16.24553,33.84487 -37.63548,33.84487 -21.38996,0 -37.63549,-15.70402 -37.63549,-33.84487 0,-15.97477 12.45491,-34.38638 37.63549,-34.38638 z"
                 style="font-style:normal;font-variant:normal;font-weight:normal;font-stretch:normal;font-size:270.75891113px;font-family:Courier;-inkscape-font-specification:Courier;fill:#4d4d4d;stroke-width:0.17748445"
                 id="path4765"
                 inkscape:connector-curvature="0" />
            </g>
            <g
               id="g4796"
               transform="translate(-163.22926,-6.63358)"
               style="fill:#808080">
              <g
                 transform="translate(271.30057,21.863906)"
                 id="text24-5"
                 style="font-style:normal;font-weight:normal;font-size:7.09937811px;line-height:1.25;font-family:sans-serif;letter-spacing:0px;word-spacing:0px;fill:#808080;fill-opacity:1;stroke:none;stroke-width:0.17748445"
                 aria-label="8">
                <path
                   sodipodi:nodetypes="csccscc"
                   inkscape:connector-curvature="0"
                   id="path4709"
                   d="m 31.577508,38.696619 c 0.1257,1.202533 0.192036,2.442881 0.192036,3.722935 0,20.313754 -16.62316,33.238021 -33.980381,33.566241 8.5005546,1.026719 16.405272,2.973663 24.232789,6.235189 16.787053,-9.205803 24.368303,-25.7219 24.368303,-40.072123 0,-1.161245 -0.04955,-2.31239 -0.145093,-3.452242 z"
                   style="font-style:normal;font-variant:normal;font-weight:normal;font-stretch:normal;font-size:270.75891113px;font-family:Courier;-inkscape-font-specification:Courier;fill:#808080;stroke-width:0.17748445" />
              </g>
              <g
                 transform="translate(0.12624987,0.06768044)"
                 aria-label="8"
                 style="font-style:normal;font-weight:normal;font-size:7.09937859px;line-height:1.25;font-family:sans-serif;letter-spacing:0px;word-spacing:0px;fill:#808080;fill-opacity:1;stroke:#ffff00;stroke-width:0;stroke-opacity:1;stroke-miterlimit:4;stroke-dasharray:none"
                 id="g4772">
                <path
                   sodipodi:nodetypes="ccscsccc"
                   inkscape:connector-curvature="0"
                   id="path4770"
                   d="m 1979.2539,532 c 0.2424,0.12732 0.5072,0.2765 0.7461,0.40039 -96,43.2 -161.5996,140.79962 -161.5996,241.59961 v 0.01 c 4.6991,-1.2883 9.9036,-2.01 15.3945,-2.01 h 71.0293 C 1905.847,678.75347 1978.3944,572.381 2124,570.83789 2072.8628,564.05663 2024.3217,559.36095 1979.2539,532 Z"
                   style="font-style:normal;font-variant:normal;font-weight:normal;font-stretch:normal;font-size:270.75891113px;font-family:Courier;-inkscape-font-specification:Courier;fill:#808080;stroke-width:0;stroke:#ffff00;stroke-opacity:1;stroke-miterlimit:4;stroke-dasharray:none"
                   transform="matrix(0.16922433,0,0,0.16922433,-91.899735,13.989866)" />
              </g>
            </g>
          </g>
          <rect
             style="opacity:1;fill:#ffffff;stroke:none;stroke-width:0;stroke-miterlimit:4;stroke-dasharray:none;stroke-dashoffset:0;stroke-opacity:1"
             id="rect5817"
             width="16.71962"
             height="2.8891957"
             x="129.76146"
             y="62.946335" />
          <rect
             style="opacity:1;fill:#ffffff;stroke:none;stroke-width:0;stroke-miterlimit:4;stroke-dasharray:none;stroke-dashoffset:0;stroke-opacity:1"
             id="rect5817-3"
             width="16.71962"
             height="2.8891957"
             x="63.206753"
             y="127.60851" />
        </g>
      </g>
    </g>
  </g>
</svg>
